PathFileType	4	(X/Y/Z)	/Users/itak/Documents/Research/Walk-IL/dataset/trc/00054_00006.trc
DataRate	CameraRate	NumFrames	NumMarkers	Units	OrigDataRate	OrigDataStartFrame	OrigNumFrames
100.000000	100.000000	4	53	mm	100.000000	236	472
Frame#	Time	RPSI			LPSI			L3			STRN			T10			C7			CLAV			RBAK			LBAK			LSHO			LUPA			LAEL			LAOL			LWTS			LWPS			LFRA			LHPS			LHTS			RSHO			RUPA			RAEL			RAOL			RWTS			RWPS			RFRA			RIFD			RHTS			RHPS			RBHD			LFHD			RFHD			LBHD			LHIP			RHIP			RASI			LASI			LKNE			LTHI			LANK			LTIP			LTOE			LMT1			LMT5			LHEE			RKNE			RTHI			RANK			RTIP			RTOE			RMT1			RMT5			RHEE			LIFD			
		X1	Y1	Z1	X2	Y2	Z2	X3	Y3	Z3	X4	Y4	Z4	X5	Y5	Z5	X6	Y6	Z6	X7	Y7	Z7	X8	Y8	Z8	X9	Y9	Z9	X10	Y10	Z10	X11	Y11	Z11	X12	Y12	Z12	X13	Y13	Z13	X14	Y14	Z14	X15	Y15	Z15	X16	Y16	Z16	X17	Y17	Z17	X18	Y18	Z18	X19	Y19	Z19	X20	Y20	Z20	X21	Y21	Z21	X22	Y22	Z22	X23	Y23	Z23	X24	Y24	Z24	X25	Y25	Z25	X26	Y26	Z26	X27	Y27	Z27	X28	Y28	Z28	X29	Y29	Z29	X30	Y30	Z30	X31	Y31	Z31	X32	Y32	Z32	X33	Y33	Z33	X34	Y34	Z34	X35	Y35	Z35	X36	Y36	Z36	X37	Y37	Z37	X38	Y38	Z38	X39	Y39	Z39	X40	Y40	Z40	X41	Y41	Z41	X42	Y42	Z42	X43	Y43	Z43	X44	Y44	Z44	X45	Y45	Z45	X46	Y46	Z46	X47	Y47	Z47	X48	Y48	Z48	X49	Y49	Z49	X50	Y50	Z50	X51	Y51	Z51	X52	Y52	Z52	X53	Y53	Z53	

237	2.36	86.62363433837891	1016.588012695312	-138.6288604736328	87.42395782470703	999.4513549804688	-314.2958068847656	98.31681060791016	1073.094970703125	-225.8623352050781	379.6328125	1236.446899414062	-218.1533355712891	105.1948776245117	1204.713012695312	-219.5023651123047	194.2344970703125	1462.76708984375	-220.7332916259766	364.1195678710938	1354.105224609375	-222.3023529052734	118.9262390136719	1332.505981445312	-143.3577270507812	167.9599609375	1427.758178710938	-320.5328063964844	269.2822570800781	1420.854370117188	-393.9925842285156	233.5139770507812	1300.40283203125	-473.6297607421875	226.9909362792969	1087.17822265625	-507.8533020019531	174.5367736816406	1071.77685546875	-417.1885681152344	340.6261596679688	857.4312133789062	-451.2590942382812	274.5226440429688	838.1182250976562	-500.0083312988281	250.8968811035156	978.0681762695312	-516.6743774414062	314.746337890625	760.061279296875	-495.7381286621094	370.8606872558594	778.7594604492188	-454.2266235351562	258.5706481933594	1420.758056640625	-47.68416976928711	245.3765411376953	1353.9189453125	16.99772834777832	215.8723297119141	1095.501098632812	76.82382965087891	232.1959686279297	1063.192626953125	-16.82763481140137	391.8949279785156	863.8721313476562	55.34749984741211	323.8319091796875	841.1286010742188	104.5791397094727	235.3638000488281	1014.938537597656	92.02800750732422	418.0721130371094	674.1480102539062	42.4412841796875	424.9461059570312	761.6759033203125	57.06521987915039	367.6993103027344	754.9450073242188	107.8734817504883	246.3074035644531	1634.713012695312	-286.3346557617188	404.6065673828125	1656.139892578125	-140.865234375	421.3056945800781	1665.505249023438	-265.567626953125	237.7808837890625	1617.36279296875	-149.8442687988281	198.9267120361328	933.417236328125	-396.9180297851562	141.4931182861328	940.7647705078125	-55.80849456787109	266.866943359375	946.5724487304688	-65.88423156738281	300.3925476074219	935.71142578125	-329.0650634765625	413.0766906738281	516.5741577148438	-342.1399841308594	338.7529907226562	635.2933349609375	-390.0018005371094	442.1683349609375	47.72964096069336	-383.9100646972656	431.2538757324219	270.1913757324219	-379.8136596679688	641.7413330078125	44.56121444702148	-367.7277526855469	594.8348999023438	42.45441436767578	-318.3341064453125	546.1356811523438	35.46261215209961	-418.9756164550781	386.1259155273438	44.30877304077148	-311.5053100585938	169.3339233398438	491.4813232421875	-73.01881408691406	203.2554626464844	760.6143188476562	-40.24771881103516	-64.24105072021484	56.37430191040039	-88.14865875244141	113.8287353515625	373.8171081542969	-69.26810455322266	144.9906768798828	37.87151718139648	-129.7245635986328	85.16935729980469	43.03642272949219	-167.3637084960938	60.60281753540039	46.93694305419922	-72.40515899658203	-113.5285034179688	71.10451507568359	-143.6199493408203	368.6689453125	675.97216796875	-419.7654724121094	
238	2.37	77.18247222900391	1016.530151367188	-135.7036437988281	77.10987854003906	999.4681396484375	-311.2945556640625	88.39178466796875	1073.411010742188	-223.0491027832031	370.3824462890625	1236.211791992188	-215.9237365722656	95.78986358642578	1205.139526367188	-217.0040130615234	185.5170440673828	1462.932250976562	-218.6542663574219	355.1130981445312	1353.895141601562	-220.1627044677734	109.9690475463867	1332.912231445312	-141.0537567138672	159.0990142822266	1427.858276367188	-318.4266967773438	260.3866271972656	1420.603271484375	-391.884765625	224.5084686279297	1300.048950195312	-471.3345947265625	218.1183013916016	1086.814208984375	-505.4779968261719	165.6801605224609	1071.428833007812	-414.7890625	332.0640869140625	857.251708984375	-448.6788024902344	265.9617004394531	837.8091430664062	-497.4134826660156	242.1922149658203	977.7396240234375	-514.2369995117188	306.2943115234375	759.7755737304688	-493.0180969238281	362.3401184082031	778.5460815429688	-451.5127868652344	249.8917694091797	1420.993408203125	-45.60688781738281	236.5888214111328	1354.377563476562	19.20136260986328	206.787353515625	1096.270385742188	80.15925598144531	222.4857940673828	1063.667602539062	-13.49046230316162	383.2800598144531	864.94677734375	58.26496887207031	315.3740844726562	841.9401245117188	107.6438217163086	226.4233856201172	1015.601745605469	95.47359466552734	410.0491638183594	675.3150634765625	45.06149291992188	416.6346435546875	762.8600463867188	59.80087280273438	359.5819396972656	755.8751220703125	110.7448272705078	237.898193359375	1634.70263671875	-284.2989196777344	396.421630859375	1655.835571289062	-139.0312194824219	412.9898681640625	1665.112182617188	-263.7542114257812	229.4914703369141	1617.428833007812	-147.8042297363281	188.1459045410156	933.7457885742188	-394.7929077148438	132.4396057128906	940.5287475585938	-53.2094841003418	257.7550659179688	946.5105590820312	-64.07283782958984	289.9387817382812	936.0413818359375	-327.3810119628906	404.4393920898438	517.666015625	-342.2463073730469	329.0090026855469	636.0662841796875	-390.0669250488281	436.7108764648438	47.93548965454102	-385.0284118652344	424.1054992675781	271.5569152832031	-380.3589172363281	635.494384765625	47.22976684570312	-366.8218994140625	588.452392578125	44.62504196166992	-317.9354858398438	540.8923950195312	35.82292556762695	-418.9700927734375	380.0400390625	44.79867935180664	-313.1132202148438	163.5290069580078	491.1082153320312	-71.98937225341797	195.4701995849609	760.4852905273438	-38.67008972167969	-65.04576873779297	54.08940124511719	-88.84414672851562	109.4712219238281	372.7052001953125	-68.93466186523438	145.0455627441406	37.80900192260742	-129.6613006591797	84.84488677978516	42.52810287475586	-167.6618194580078	60.00330352783203	46.58271789550781	-73.00698089599609	-114.4882049560547	67.64208984375	-144.4618530273438	360.2555847167969	675.5562133789062	-416.7897644042969	
239	2.38	68.01644134521484	1016.523254394531	-132.6957397460938	66.89366912841797	999.5430908203125	-308.2162780761719	78.60285949707031	1073.786376953125	-220.1863861083984	361.2406005859375	1236.1806640625	-213.8883514404297	86.46490478515625	1205.673950195312	-214.5647430419922	176.8109741210938	1463.2314453125	-216.7034759521484	346.1559448242188	1353.881225585938	-218.1830444335938	101.0798873901367	1333.422729492188	-138.861572265625	150.2418823242188	1428.086181640625	-316.4512634277344	251.4893035888672	1420.509643554688	-389.9202575683594	215.5818939208984	1299.821899414062	-469.1715698242188	209.4761962890625	1086.562255859375	-503.1895751953125	156.9847412109375	1071.193481445312	-412.5076599121094	323.6462097167969	857.15966796875	-446.1111450195312	257.593017578125	837.6101684570312	-494.8945617675781	233.7130737304688	977.52392578125	-511.868408203125	298.0086059570312	759.5926513671875	-490.3551330566406	353.9525451660156	778.426513671875	-448.809814453125	241.2679901123047	1421.370361328125	-43.66855621337891	227.8426666259766	1354.989990234375	21.26531028747559	197.5984191894531	1097.252197265625	83.38495635986328	212.7373657226562	1064.294677734375	-10.26044273376465	374.3515625	866.0436401367188	61.20278167724609	306.552734375	842.869873046875	110.7221298217773	217.3204650878906	1016.464660644531	98.83814239501953	401.5159912109375	676.47119140625	47.80183410644531	407.9066772460938	764.0322265625	62.61380767822266	351.0310363769531	756.8822021484375	113.6901473999023	229.5374450683594	1634.880859375	-282.3687744140625	388.2517395019531	1655.660522460938	-137.2576141357422	404.7307434082031	1664.878784179688	-261.9906921386719	221.2145080566406	1617.651000976562	-145.8751220703125	177.2300872802734	934.2168579101562	-392.7586364746094	123.7246017456055	940.37158203125	-50.61174774169922	249.0126800537109	946.5453491210938	-62.45345687866211	279.6209716796875	936.608154296875	-325.9341430664062	396.4237060546875	518.91943359375	-342.2550354003906	319.7380981445312	637.0731811523438	-390.0168151855469	429.0266723632812	48.03283309936523	-386.1181335449219	416.0658569335938	272.84033203125	-380.8069458007812	627.1008911132812	50.06901550292969	-366.0649719238281	579.8870239257812	46.9298210144043	-317.5782165527344	533.4290771484375	36.18668746948242	-418.9513854980469	371.74658203125	45.21588516235352	-314.65185546875	158.0655517578125	490.8359375	-71.1746826171875	188.1623992919922	760.4322509765625	-37.31634521484375	-65.71159362792969	52.05039215087891	-89.41956329345703	105.4280624389648	371.7449951171875	-68.69062042236328	145.0963287353516	37.75456237792969	-129.6227416992188	84.54824066162109	42.04833221435547	-167.9744567871094	59.50700759887695	46.25522613525391	-73.58307647705078	-115.2754974365234	64.47975158691406	-145.1528930664062	351.9842224121094	675.271240234375	-413.9304809570312	
240	2.39	59.11521148681641	1016.5791015625	-129.6611938476562	56.80987167358398	999.6796264648438	-305.1138305664062	68.96092987060547	1074.226318359375	-217.3174591064453	352.2121276855469	1236.35546875	-212.0462188720703	77.22768402099609	1206.314819335938	-212.2034912109375	168.1183624267578	1463.665771484375	-214.8790283203125	337.2540893554688	1354.066528320312	-216.3651123046875	92.26503753662109	1334.03759765625	-136.7835998535156	141.3902740478516	1428.44482421875	-314.6055603027344	242.5906524658203	1420.578125	-388.10009765625	206.7384033203125	1299.7265625	-467.1409301757812	201.07177734375	1086.42919921875	-500.9866943359375	148.4589996337891	1071.074096679688	-410.3443298339844	315.375732421875	857.1593017578125	-443.5589904785156	249.4263153076172	837.5289306640625	-492.4623107910156	225.4653167724609	977.4268798828125	-509.5689392089844	289.8982849121094	759.5211791992188	-487.7628479003906	345.7026672363281	778.4058837890625	-446.1224975585938	232.7039337158203	1421.887451171875	-41.86772537231445	219.1458435058594	1355.74951171875	23.18842124938965	188.3196868896484	1098.431762695312	86.48130035400391	203.0030364990234	1065.06689453125	-7.150484561920166	365.1161193847656	867.1427001953125	64.16019439697266	297.3687133789062	843.9039306640625	113.8077545166016	208.0752105712891	1017.518188476562	102.1050491333008	392.470703125	677.5941162109375	50.67755508422852	398.7642517089844	765.1699829101562	65.51287841796875	342.0371398925781	757.9498291015625	116.7105026245117	221.2247772216797	1635.251953125	-280.5458374023438	380.1006164550781	1655.619506835938	-135.5509490966797	396.5293273925781	1664.808227539062	-260.283203125	212.9540405273438	1618.033325195312	-144.0583953857422	166.2224578857422	934.8257446289062	-390.8269958496094	115.306282043457	940.3076171875	-48.0638427734375	240.6136016845703	946.6900634765625	-61.01951599121094	269.4708557128906	937.3973999023438	-324.7059631347656	389.0317993164062	520.314697265625	-342.14306640625	311.0066833496094	638.3175659179688	-389.7692565917969	418.86669921875	48.04282760620117	-387.1082458496094	406.9773254394531	274.0169067382812	-381.1321105957031	616.3551025390625	52.91791915893555	-365.5984497070312	568.97607421875	49.26377868652344	-317.3562927246094	523.4630126953125	36.53684616088867	-418.9662780761719	361.0735473632812	45.57951354980469	-315.9988708496094	152.9020538330078	490.6801452636719	-70.58408355712891	181.2825775146484	760.4682006835938	-36.18445205688477	-66.26568603515625	50.250244140625	-89.90652465820312	101.6389236450195	370.9612731933594	-68.53621673583984	145.1409912109375	37.70618438720703	-129.6061859130859	84.2872314453125	41.60761642456055	-168.2986602783203	59.10197448730469	45.96672821044922	-74.12519836425781	-115.9154281616211	61.61506652832031	-145.7370300292969	343.8479614257812	675.1327514648438	-411.2035522460938	
